<?xml version="1.0" standalone="no"?><!DOCTYPE svg PUBLIC "-//W3C//DTD SVG 1.1//EN" "http://www.w3.org/Graphics/SVG/1.1/DTD/svg11.dtd"><svg t="1677131648428" class="icon" viewBox="0 0 1024 1024" version="1.1" xmlns="http://www.w3.org/2000/svg" p-id="1069" xmlns:xlink="http://www.w3.org/1999/xlink" width="200" height="200"><path d="M228.86677419 615.81594471q0-29.30903226-20.73774193-50.04677419t-50.04580645-20.73677419T108.03548387 565.76820278t-20.73677419 50.04677419T108.03548387 665.86175116t50.04677419 20.73774194T208.12903226 665.86175116t20.73774193-50.04580645z m106.17483871-247.74193548q0-29.30903226-20.73774193-50.0467742T264.25806452 297.29046084t-50.04580646 20.73677419-20.73774193 50.0467742T214.21225806 418.11981568 264.25806452 438.85755762 314.30387097 418.11981568t20.73774193-50.04580645z m236.68161291 265.99064516l55.8532258-211.24451613q3.31741935-14.37774194-4.14774193-26.82t-21.29032258-16.31322581T575.59419355 383.281106t-16.59 21.84290323l-55.85225807 211.24451613q-33.18 2.76483871-59.17064516 24.05516129t-34.83870967 54.47032258q-11.05935484 42.58064516 11.06032258 80.73774193T484.90322581 824.84820278t80.73774193-11.06032258T614.85741935 749.08755762q8.84806452-33.18-3.31838709-64.70032259t-39.81580645-50.32258064z m364.97709677-18.24870968q0-29.30903226-20.73677419-50.04677419t-50.0467742-20.73677419T815.87096774 565.76820278t-20.73774193 50.04677419T815.87096774 665.86175116t50.04580645 20.73774194T915.96451613 665.86175116t20.73677419-50.04580645zM582.78354839 261.89723503q0-29.30806452-20.73774194-50.04580645T512 191.11658987t-50.04580645 20.7367742-20.73774194 50.04580645 20.73774194 50.04677419T512 332.68175116t50.04580645-20.73677419 20.73774194-50.04677419z m247.74193548 106.17580646q0-29.30903226-20.73774193-50.0467742T759.74193548 297.29046084t-50.04580645 20.73677419-20.73774193 50.0467742T709.69612903 418.11981568 759.74193548 438.85755762 809.78774194 418.11981568t20.73774193-50.04580645z m176.9583871 247.74193548q0 144.33193548-77.97193549 267.09677419-10.50774194 16.03645161-29.86258064 16.03645162H124.3516129q-19.35483871 0-29.86258064-16.03645162Q16.51612903 760.70046084 16.51612903 615.81594471q0-100.64516129 39.26225807-192.44225806T161.40064516 265.21658987t158.15709678-105.62225806T512 120.33207374t192.44225806 39.26225807T862.59935484 265.21658987t105.62225806 158.15709678T1007.48387097 615.81594471z" fill="#bfbfbf" p-id="1070"></path></svg>