<?xml version="1.0" standalone="no"?><!DOCTYPE svg PUBLIC "-//W3C//DTD SVG 1.1//EN" "http://www.w3.org/Graphics/SVG/1.1/DTD/svg11.dtd"><svg t="1690885106566" class="icon" viewBox="0 0 1280 1024" version="1.1" xmlns="http://www.w3.org/2000/svg" p-id="3374" xmlns:xlink="http://www.w3.org/1999/xlink" width="250" height="200"><path d="M246.25350327 813.18606577h235.72464741a28.31734704 28.31734704 0 0 1 0 56.62088073H218.17098301a28.28972036 28.28972036 0 0 1-28.49692046-28.11014693V303.68101918H161.48103557a28.49692045 28.49692045 0 0 1-28.42785377-28.42785376v-112.99312135a28.45548043 28.45548043 0 0 1 28.42785377-28.41404043h112.99312135c15.70576761 0 28.42785377 12.74971283 28.42785375 28.41404043v112.99312135a28.42785377 28.42785377 0 0 1-28.42785375 28.42785376h-28.20684031v207.57306045h235.7246474a28.3035337 28.3035337 0 0 1 0 56.60706741H246.25350327v245.32491873zM416.08851879 162.26004407c0-15.69195427 11.47888556-28.41404042 25.56849238-28.41404043H1084.90281582c14.10342016 0 25.54086569 12.74971283 25.5408657 28.41404043v112.99312135c0 15.70576761-11.45125887 28.42785377-25.5408657 28.42785376H441.65701117c-14.10342016 0-25.54086569-12.72208617-25.56849238-28.42785376v-112.99312135zM602.40284897 483.06105267c0-15.69195427 11.32693882-28.42785377 25.54086567-28.42785376H1084.90281582c14.10342016 0 25.54086569 12.76352617 25.5408657 28.42785376v112.99312133c0 15.70576761-11.31312546 28.42785377-25.5408657 28.42785377H627.92990133c-14.08960683-0.01381333-25.51323902-12.7358995-25.54086571-28.42785377v-112.99312133zM602.40284897 784.9930388c0-15.70576761 11.32693882-28.42785377 25.54086567-28.42785377H1084.90281582c14.10342016 0 25.54086569 12.76352617 25.5408657 28.42785377v113.00693469c0 15.69195427-11.31312546 28.41404042-25.5408657 28.41404039H627.92990133c-14.08960683-0.01381333-25.51323902-12.7358995-25.54086571-28.41404039v-113.00693469z" fill="#B3B3B3" p-id="3375"></path><path d="M284.19297474 776.9536749h235.72464744a28.31734704 28.31734704 0 1 1 0 56.62088072H256.11045448a28.3035337 28.3035337 0 0 1-28.49692045-28.12396026V267.43481498H199.42050704a28.48310711 28.48310711 0 0 1-28.42785377-28.41404042v-113.00693469a28.45548043 28.45548043 0 0 1 28.42785377-28.42785375h112.99312138c15.70576761 0 28.42785377 12.74971283 28.42785374 28.42785375v113.00693469a28.42785377 28.42785377 0 0 1-28.42785374 28.41404041h-28.20684034v207.57306044h235.72464742a28.31734704 28.31734704 0 0 1 0 56.62088076H284.19297474v245.32491873z" fill="#044cf4" p-id="3376"></path><path d="M397.11878305 126.0276532c0-15.69195427 11.47888556-28.42785377 25.56849238-28.42785377H1065.93308007c14.10342016 0 25.54086569 12.74971283 25.5408657 28.42785377v113.0069347c0 15.69195427-11.45125887 28.41404042-25.5408657 28.41404041H422.68727543c-14.10342016 0-25.54086569-12.72208617-25.56849238-28.41404041v-113.0069347zM583.43311323 446.8286618c0-15.69195427 11.32693882-28.42785377 25.5408657-28.42785379H1065.93308007c14.10342016 0 25.54086569 12.74971283 25.5408657 28.42785379v113.00693468c0 15.69195427-11.31312546 28.41404042-25.5408657 28.41404041H608.96016559c-14.08960683-0.01381333-25.51323902-12.7358995-25.5408657-28.41404041v-113.00693468zM583.43311323 748.76064792c0-15.69195427 11.32693882-28.42785377 25.5408657-28.42785374H1065.93308007c14.10342016 0 25.54086569 12.76352617 25.5408657 28.42785374v113.00693469c0 15.70576761-11.31312546 28.41404042-25.5408657 28.41404043H608.96016559c-14.08960683-0.01381333-25.51323902-12.72208617-25.5408657-28.41404043V748.76064792z" fill="#f8b427" p-id="3377"></path></svg>