<?xml version="1.0" standalone="no"?><!DOCTYPE svg PUBLIC "-//W3C//DTD SVG 1.1//EN" "http://www.w3.org/Graphics/SVG/1.1/DTD/svg11.dtd"><svg t="1676983407801" class="icon" viewBox="0 0 1024 1024" version="1.1" xmlns="http://www.w3.org/2000/svg" p-id="2278" xmlns:xlink="http://www.w3.org/1999/xlink" width="200" height="200"><path d="M399.74545419 502.83636355c-4.58181773-2.29090936-9.16363645-2.29090936-13.74545419-2.29090936a153.49090936 153.49090936 0 1 1 153.49090936-153.49090838c0 27.49090936-6.87272709 57.27272709-22.90909163 80.18181774-9.16363645 16.03636355-4.58181773 36.65454581 11.45454582 48.10909064 16.03636355 9.16363645 36.65454581 4.58181773 48.10909064-11.45454483 20.61818227-34.36363645 32.07272709-75.6 32.07272808-116.83636355 0-121.41818227-98.50909064-222.21818227-222.21818227-222.21818226-121.41818227 0-222.21818227 98.50909064-222.21818227 222.21818226 0 73.30909064 36.65454581 137.45454581 91.63636454 178.69090838C111.09090936 580.72727291 8 718.18181773 8 883.12727291c0 18.32727291 16.03636355 34.36363645 34.36363645 34.36363645S76.72727291 901.45454581 76.72727291 883.12727291c0-171.81818227 139.74545419-311.56363645 311.56363645-311.56363646s311.56363645 139.74545419 311.56363645 311.56363646c0 18.32727291 16.03636355 34.36363645 34.36363646 34.36363645s34.36363645-16.03636355 34.36363546-34.36363645c0-206.18181773-164.94545419-373.41818227-368.83636354-380.29090936zM775.45454581 569.27272709c-18.32727291-4.58181773-36.65454581 6.87272709-41.23636354 25.2-4.58181773 18.32727291 6.87272709 36.65454581 25.2 41.23636355 6.87272709 2.29090936 187.85454581 43.52727291 187.85454482 245.12727291 0 18.32727291 16.03636355 34.36363645 34.36363646 34.36363645S1016 901.45454581 1016 883.12727291c0-206.18181773-158.07272709-295.52727291-240.54545419-313.85454582z" fill="#19da26" p-id="2279" data-spm-anchor-id="a313x.7781069.0.i3" class="selected"></path><path d="M807.52727291 560.10909064c-9.16363645 0-18.32727291-4.58181773-25.2-11.45454483-13.74545419-13.74545419-11.45454581-36.65454581 2.29090936-48.10909162 0 0 36.65454581-38.94545419 16.03636354-121.41818128-18.32727291-80.18181773-114.54545419-87.05454581-116.83636354-87.05454582-18.32727291-2.29090936-34.36363645-18.32727291-32.07272808-36.65454482 2.29090936-18.32727291 18.32727291-32.07272709 36.65454581-32.07272808 6.87272709 0 148.90909064 9.16363645 180.98181773 139.74545517 29.78181773 123.70909064-32.07272709 185.56363645-36.65454482 187.85454483-9.16363645 4.58181773-18.32727291 9.16363645-25.2 9.16363645z" fill="#FFB243" p-id="2280"></path></svg>