<?xml version="1.0" standalone="no"?><!DOCTYPE svg PUBLIC "-//W3C//DTD SVG 1.1//EN" "http://www.w3.org/Graphics/SVG/1.1/DTD/svg11.dtd"><svg t="1677132348733" class="icon" viewBox="0 0 1024 1024" version="1.1" xmlns="http://www.w3.org/2000/svg" p-id="1102" xmlns:xlink="http://www.w3.org/1999/xlink" width="200" height="200"><path d="M638.976 389.12h-163.84c-14.848 0-27.648-10.752-30.208-25.6l-20.48-122.88c-1.536-8.704 1.024-17.92 6.656-25.088S445.44 204.8 454.656 204.8h204.8c9.216 0 17.408 4.096 23.552 10.752s8.192 15.872 6.656 25.088l-20.48 122.88c-2.56 14.848-15.36 25.6-30.208 25.6zM501.248 327.68h111.616l10.24-61.44H491.008l10.24 61.44zM557.056 829.44c-8.704 0-17.408-4.096-23.04-10.752l-122.88-141.824c-6.656-7.68-9.216-17.92-6.656-27.136l46.08-190.976c3.584-13.824 15.872-23.552 29.696-23.552h163.84c14.848 0 27.648 10.752 30.208 25.088l35.84 190.976c1.536 9.216-1.024 18.944-7.168 25.6l-122.88 141.824c-5.632 6.656-14.336 10.752-23.04 10.752z m-89.088-180.736l89.088 102.912 90.112-103.936-28.672-151.04H504.32l-36.352 152.064z" fill="#f29d2d" p-id="1103"></path><path d="M160.768 422.912h61.44v174.592h-61.44z" fill="#2a9cf7" p-id="1104"></path><path d="M819.712 953.856H294.4c-73.728 0-133.632-59.904-133.632-133.12v-77.312h61.44v77.312c0 39.424 32.256 71.68 72.192 71.68h525.312c39.936 0 72.192-32.256 72.192-71.68v-614.4c0-39.424-32.256-71.68-72.192-71.68H294.4c-39.936 0-72.192 32.256-72.192 71.68v81.92h-61.44v-81.92c0-73.216 59.904-133.12 133.632-133.12h525.312c73.728 0 133.632 59.904 133.632 133.12v614.4c0 73.216-59.904 133.12-133.632 133.12z" fill="#2a9cf7" p-id="1105"></path><path d="M258.048 697.856H103.424c-16.896 0-30.72-13.824-30.72-30.72s13.824-30.72 30.72-30.72h154.624c16.896 0 30.72 13.824 30.72 30.72s-13.312 30.72-30.72 30.72zM258.048 390.656H103.424c-16.896 0-30.72-13.824-30.72-30.72s13.824-30.72 30.72-30.72h154.624c16.896 0 30.72 13.824 30.72 30.72s-13.312 30.72-30.72 30.72z" fill="#2a9cf7" p-id="1106"></path></svg>