<?xml version="1.0" standalone="no"?><!DOCTYPE svg PUBLIC "-//W3C//DTD SVG 1.1//EN" "http://www.w3.org/Graphics/SVG/1.1/DTD/svg11.dtd"><svg t="1677131615232" class="icon" viewBox="0 0 1028 1024" version="1.1" xmlns="http://www.w3.org/2000/svg" p-id="914" xmlns:xlink="http://www.w3.org/1999/xlink" width="200.78125" height="200"><path d="M983.82781097 640.24849887c1.5833151 7.9165737 1.5833151 17.4164625-1.5833151 30.08298152-1.5833151 11.08320392-4.7499444 23.74972202-9.49988881 34.83292501-4.7499444 11.08320392-11.08320392 22.1664069-17.41646251 31.66629663-6.3332595 9.4998888-14.2498332 15.83314832-22.16640782 20.58309179-7.9165737 4.7499444-15.83314832 6.3332595-20.58309179 6.33325953-6.3332595 0-12.6665181-1.5833151-20.58309272-4.74994441-6.3332595-1.5833151-15.83314832-3.16662929-25.33303712-6.33325951-9.4998888-1.5833151-20.58309272-1.5833151-31.66629572-1.58331418-11.08320392 1.5833151-20.58309272 3.16662929-31.66629571 6.33325857s-18.99977762 9.4998888-26.91635223 17.41646343c-15.83314832 17.4164625-25.33303712 36.41624011-28.49966641 58.58264703-3.16662929 22.1664069 0 42.74949963 9.49988879 61.74927723 6.3332595 14.2498332 6.3332595 26.91635131-3.16662928 41.16618543-4.7499444 4.7499444-11.08320392 11.08320392-18.99977762 17.41646251-9.4998888 6.3332595-18.99977762 11.08320392-28.49966641 15.83314832-11.08320392 4.7499444-22.1664069 7.9165737-33.24961082 11.08320299-11.08320392 3.16662929-22.1664069 4.7499444-30.08298152 4.74994439-6.3332595 0-11.08320392-1.5833151-17.4164625-6.33325857-4.7499444-4.7499444-9.4998888-9.4998888-11.08320391-15.83314833h-1.58331419c-7.9165737-20.58309272-20.58309272-39.58287032-37.99955523-53.83270352-17.4164625-15.83314832-39.58287032-22.1664069-63.33259234-22.16640691s-44.33281474 7.9165737-63.33259234 22.16640691c-18.99977762 15.83314832-31.66629572 33.24961082-39.58286942 53.83270352-3.16662929 7.9165737-7.9165737 14.2498332-15.83314831 17.41646251-6.3332595 3.16662929-14.2498332 6.3332595-22.1664069 6.33325951-9.4998888 0-20.58309272-1.5833151-31.66629664-4.7499444-12.6665181-3.16662929-23.74972202-7.9165737-36.41624011-12.6665181-11.08320392-4.7499444-22.1664069-11.08320392-31.66629571-17.41646344-9.4998888-6.3332595-15.83314832-14.2498332-20.58309272-20.5830918-3.16662929-4.7499444-4.7499444-11.08320392-6.33325951-17.41646341 0-6.3332595 1.5833151-15.83314832 7.91657461-26.9163513 7.9165737-15.83314832 11.08320392-33.24961082 7.9165737-53.83270354-1.5833151-20.58309272-11.08320392-37.99955522-25.33303712-55.41601773-9.4998888-9.4998888-20.58309272-17.4164625-34.832925-20.58309273-14.2498332-3.16662929-26.91635131-4.7499444-37.99955523-3.16662928-14.2498332 0-28.49966641 3.16662929-44.33281472 7.9165737-9.4998888 3.16662929-18.99977762 1.5833151-28.49966642-1.58331419-6.3332595-4.7499444-14.2498332-11.08320392-20.58309271-20.58309272-6.3332595-9.4998888-12.6665181-20.58309272-17.41646251-33.24961082-4.7499444-11.08320392-9.4998888-23.74972202-11.08320391-36.41624012-3.16662929-12.6665181-3.16662929-22.1664069-1.58331418-31.66629662 1.5833151-14.2498332 9.4998888-23.74972202 20.58309179-28.49966641 20.58309272-7.9165737 37.99955522-22.1664069 55.41601863-39.58286942 15.83314832-18.99977762 23.74972202-39.58287032 23.74972202-63.33259234s-7.9165737-44.33281474-23.74972202-61.74927724-34.83292593-30.08298153-55.41601863-37.99955522c-6.3332595-1.5833151-11.08320392-6.3332595-15.8331474-14.24983321-4.7499444-7.9165737-6.3332595-15.83314832-6.33325951-23.749722 0-9.4998888 1.5833151-18.99977762 4.7499444-30.08298154 3.16662929-11.08320392 6.3332595-22.1664069 11.08320392-31.6662957 4.7499444-9.4998888 9.4998888-18.99977762 15.8331474-28.49966642 6.3332595-7.9165737 12.6665181-14.2498332 18.99977761-18.99977762 4.7499444-3.16662929 11.08320392-4.7499444 15.8331483-4.74994439 4.7499444 0 11.08320392 1.5833151 17.41646251 4.74994439 20.58309272 7.9165737 41.16618452 11.08320392 63.33259234 7.9165737 22.1664069-3.16662929 41.16618452-12.6665181 58.58264794-28.49966642 7.9165737-7.9165737 14.2498332-17.4164625 17.4164625-30.08298059 3.16662929-11.08320392 6.3332595-23.74972202 6.33325953-34.83292594 1.5833151-11.08320392 1.5833151-22.1664069 0-31.6662957-1.5833151-9.4998888-1.5833151-15.83314832-3.16663023-20.58309273-1.5833151-4.7499444-3.16662929-9.4998888-3.1666293-14.2498332-1.5833151-4.7499444 0-9.4998888 1.58331511-14.2498332 3.16662929-9.4998888 11.08320392-17.4164625 20.58309181-25.33303712 11.08320392-6.3332595 22.1664069-12.6665181 34.83292592-17.41646251 12.6665181-4.7499444 23.74972202-7.9165737 36.41624012-11.08320391 11.08320392-1.5833151 18.99977762-3.16662929 26.91635221-3.1666293 9.4998888 0 15.83314832 3.16662929 20.5830918 7.91657369 4.7499444 6.3332595 7.9165737 11.08320392 11.08320392 17.41646343 7.9165737 18.99977762 18.99977762 34.83292593 36.41624012 49.08275821 17.4164625 14.2498332 36.41624011 20.58309272 60.16596305 20.58309272s44.33281474-6.3332595 63.33259142-20.58309272c18.99977762-12.6665181 31.66629572-30.08298153 37.99955523-50.66607331 3.16662929-4.7499444 6.3332595-11.08320392 12.66651901-17.41646251 6.3332595-3.16662929 11.08320392-6.3332595 17.4164625-6.33325951 9.4998888 0 20.58309272 1.5833151 31.66629571 4.7499444 11.08320392 3.16662929 22.1664069 6.3332595 33.24961082 11.08320392 11.08320392 4.7499444 20.58309272 11.08320392 30.08298152 18.99977762 9.4998888 7.9165737 15.83314832 15.83314832 22.1664069 23.749722 3.16662929 4.7499444 4.7499444 11.08320392 3.16663023 17.4164625-1.5833151 6.3332595-3.16662929 11.08320392-4.7499444 14.24983321-9.4998888 18.99977762-11.08320392 41.16618452-7.91657462 61.74927724 3.16662929 22.1664069 12.6665181 41.16618452 30.08298152 56.99933283 15.83314832 15.83314832 36.41624011 25.33303712 60.16596213 26.9163513 23.74972202 1.5833151 45.91612892-1.5833151 66.49922164-11.08320299 4.7499444-3.16662929 12.6665181-4.7499444 20.58309271-4.7499444s14.2498332 3.16662929 20.58309273 9.49988882c9.4998888 9.4998888 18.99977762 23.74972202 26.9163513 42.74949961 7.9165737 18.99977762 12.6665181 39.58287032 15.83314831 58.58264703 1.5833151 11.08320392 0 20.58309272-6.3332595 26.91635222-4.7499444 6.3332595-11.08320392 11.08320392-15.83314832 12.6665181-20.58309272 7.9165737-39.58287032 20.58309272-53.83270261 39.58287032-14.2498332 18.99977762-22.1664069 39.58287032-22.16640782 63.33259144s6.3332595 42.74949963 18.9997776 60.16596304c12.6665181 17.4164625 28.49966641 30.08298153 49.08275913 36.41624012 4.7499444 3.16662929 9.4998888 4.7499444 12.6665181 7.9165737 4.7499444 7.9165737 9.4998888 15.83314832 12.66651902 25.33303711z m-473.41112607 90.24894365c30.08298153 0 58.58264794-6.3332595 87.08231435-17.4164625s50.66607333-26.91635131 71.24916604-47.49944403c20.58309272-20.58309272 36.41624011-44.33281474 47.49944402-71.24916603 11.08320392-26.91635131 17.4164625-55.41601772 17.41646251-85.49899925 0-30.08298153-6.3332595-58.58264794-17.41646251-85.49899926-11.08320392-26.91635131-26.91635131-50.66607333-47.49944402-69.66585184-20.58309272-20.58309272-44.33281474-36.41624011-71.24916604-47.49944404-26.91635131-11.08320392-55.41601772-17.4164625-87.08231435-17.41646249-30.08298153 0-58.58264794 6.3332595-85.49899926 17.41646249-26.91635131 11.08320392-50.66607333 26.91635131-69.66585093 47.49944404-20.58309272 20.58309272-36.41624011 42.74949963-47.49944402 69.66585184-11.08320392 26.91635131-17.4164625 55.41601772-17.41646251 85.49899926 0 30.08298153 6.3332595 58.58264794 17.41646251 85.49899925 11.08320392 26.91635131 26.91635131 50.66607333 47.49944402 71.24916603 20.58309272 20.58309272 42.74949963 36.41624011 69.66585093 47.49944403 26.91635131 12.6665181 55.41601772 17.4164625 85.49899926 17.4164625z" fill="#bfbfbf" p-id="915"></path><path d="M512 509.95033801m-79.93680261 0a79.93680261 79.93680261 0 1 0 159.87360522 0 79.93680261 79.93680261 0 1 0-159.87360522 0Z" fill="#bfbfbf" p-id="916"></path></svg>