<?xml version="1.0" standalone="no"?><!DOCTYPE svg PUBLIC "-//W3C//DTD SVG 1.1//EN" "http://www.w3.org/Graphics/SVG/1.1/DTD/svg11.dtd"><svg t="1690885227656" class="icon" viewBox="0 0 1024 1024" version="1.1" xmlns="http://www.w3.org/2000/svg" p-id="2881" xmlns:xlink="http://www.w3.org/1999/xlink" width="200" height="200"><path d="M872.52557074 353.65883509L452.47972773 214.68094447v721.82918424h360.67145376c54.41436655 0 98.47103868-43.76490607 98.47103868-97.74162357V407.48966959c0-24.45971974-15.75536619-46.09903438-39.09664943-53.8308345z" fill="#402AD2" p-id="2882"></path><path d="M839.79914653 388.23311091L447.66558807 257.52192474v678.93957631h336.69801075c50.76729106 0 91.95493043-41.18763938 91.95493044-91.95493046V438.85451893c0-22.95226185-14.73418505-43.32725702-36.51938273-50.62140802z" fill="#534FFF" p-id="2883"></path><path d="M163.33958158 182.82981838l348.02825867-90.78786627c36.61663808-9.53102397 72.4552334 17.60321778 72.45523339 54.9006433v789.5675333H219.8449381c-54.90064329 0-99.39496448-43.81353374-99.39496449-97.83887892V237.73046166c-0.04862767-25.77266691 17.60321778-48.2872797 42.88960797-54.90064328z" fill="#0081C9" p-id="2884"></path><path d="M160.13015513 228.29669302l321.91519804-85.29293917c33.84486069-8.94749191 67.00893397 16.53340897 67.00893398 51.59396148v741.91241338H212.35627638c-50.76729106 0-91.95493043-41.18763938-91.95493043-91.95493044V279.89065453c0-24.21658137 16.2902706-45.3696193 39.72880919-51.59396151z" fill="#044cf4" p-id="2885"></path><path d="M411.04894998 469.83034691H264.53376998c-21.15303793 0-38.26997896-21.00715493-38.26997899-46.97433253 0-25.91854994 17.11694103-46.97433251 38.26997899-46.97433253h146.51518c21.15303793 0 38.26997896 21.00715493 38.26997898 46.97433253 0 25.91854994-17.11694103 46.97433251-38.26997898 46.97433253zM411.04894998 744.47944638H264.53376998c-21.15303793 0-38.26997896-21.00715493-38.26997899-46.97433252 0-25.91854994 17.11694103-46.97433251 38.26997899-46.97433252h146.51518c21.15303793 0 38.26997896 21.00715493 38.26997898 46.97433252s-17.11694103 46.97433251-38.26997898 46.97433251z" fill="#0081C9" p-id="2886"></path><path d="M772.64432953 618.14475083h-120.25623636c-18.04086684 0-37.44330854-21.15303793-37.44330853-47.26609856s14.63692971-47.26609856 32.67779652-47.26609856h125.07037604c18.04086684 0 32.67779654 21.15303793 32.67779653 47.26609856s-14.73418505 47.26609856-32.7264242 47.26609856zM772.64432953 795.34399278h-120.25623636c-18.04086684 0-37.44330854-21.15303793-37.44330853-47.26609857s14.63692971-47.26609856 32.67779652-47.26609857h125.07037604c18.04086684 0 32.67779654 21.15303793 32.67779653 47.26609857s-14.73418505 47.26609856-32.7264242 47.26609857z" fill="#402AD2" p-id="2887"></path><path d="M411.04894998 442.35571142H264.53376998c-21.15303793 0-38.26997896-17.11694103-38.26997899-38.26997898s17.11694103-38.26997896 38.26997899-38.26997897h146.51518c21.15303793 0 38.26997896 17.11694103 38.26997898 38.26997897 0 21.10441027-17.11694103 38.26997896-38.26997898 38.26997898zM411.04894998 713.45499074H264.53376998c-21.15303793 0-38.26997896-17.11694103-38.26997899-38.26997899s17.11694103-38.26997896 38.26997899-38.26997897h146.51518c21.15303793 0 38.26997896 17.11694103 38.26997898 38.26997897s-17.11694103 38.26997896-38.26997898 38.26997899z" fill="#F6E937" p-id="2888"></path><path d="M767.0035194 593.78228644H655.45163658c-21.15303793 0-38.26997896-17.11694103-38.26997897-38.26997895s17.11694103-38.26997896 38.26997897-38.269979h111.55188282c21.15303793 0 38.26997896 17.11694103 38.26997901 38.269979s-17.11694103 38.26997896-38.26997901 38.26997895zM767.0035194 768.40426171H655.45163658c-21.15303793 0-38.26997896-17.11694103-38.26997897-38.269979s17.11694103-38.26997896 38.26997897-38.26997897h111.55188282c21.15303793 0 38.26997896 17.11694103 38.26997901 38.26997897s-17.11694103 38.26997896-38.26997901 38.269979z" fill="#FFFFFF" p-id="2889"></path></svg>